<svg width="110" height="110" viewBox="0 0 110 110" fill="none" xmlns="http://www.w3.org/2000/svg">
<path d="M55.004 7C41.968 7 40.332 7.057 35.212 7.29C30.102 7.524 26.614 8.333 23.562 9.52C20.405 10.746 17.727 12.386 15.059 15.055C12.389 17.723 10.749 20.401 9.519 23.557C8.329 26.61 7.519 30.099 7.289 35.207C7.06 40.327 7 41.964 7 55C7 68.036 7.058 69.667 7.29 74.787C7.525 79.897 8.334 83.385 9.52 86.437C10.747 89.594 12.387 92.272 15.056 94.94C17.723 97.61 20.401 99.254 23.556 100.48C26.61 101.667 30.099 102.476 35.208 102.71C40.328 102.943 41.963 103 54.998 103C68.035 103 69.666 102.943 74.786 102.71C79.896 102.476 83.388 101.667 86.442 100.48C89.598 99.254 92.272 97.61 94.939 94.94C97.609 92.272 99.249 89.594 100.479 86.438C101.659 83.385 102.469 79.896 102.709 74.788C102.939 69.668 102.999 68.036 102.999 55C102.999 41.964 102.939 40.328 102.709 35.208C102.469 30.098 101.659 26.61 100.479 23.558C99.249 20.401 97.609 17.723 94.939 15.055C92.269 12.385 89.599 10.745 86.439 9.52C83.379 8.333 79.889 7.524 74.779 7.29C69.659 7.057 68.029 7 54.989 7H55.004ZM50.698 15.65C51.976 15.648 53.402 15.65 55.004 15.65C67.82 15.65 69.339 15.696 74.4 15.926C79.08 16.14 81.62 16.922 83.312 17.579C85.552 18.449 87.149 19.489 88.828 21.169C90.508 22.849 91.548 24.449 92.42 26.689C93.077 28.379 93.86 30.919 94.073 35.599C94.303 40.659 94.353 42.179 94.353 54.989C94.353 67.799 94.303 69.319 94.073 74.379C93.859 79.059 93.077 81.599 92.42 83.289C91.55 85.529 90.508 87.124 88.828 88.803C87.148 90.483 85.553 91.523 83.312 92.393C81.622 93.053 79.08 93.833 74.4 94.047C69.34 94.277 67.82 94.327 55.004 94.327C42.187 94.327 40.668 94.277 35.608 94.047C30.928 93.831 28.388 93.049 26.695 92.392C24.455 91.522 22.855 90.482 21.175 88.802C19.495 87.122 18.455 85.526 17.583 83.285C16.926 81.595 16.143 79.055 15.93 74.375C15.7 69.315 15.654 67.795 15.654 54.977C15.654 42.159 15.7 40.647 15.93 35.587C16.144 30.907 16.926 28.367 17.583 26.675C18.453 24.435 19.495 22.835 21.175 21.155C22.855 19.475 24.455 18.435 26.695 17.563C28.387 16.903 30.928 16.123 35.608 15.908C40.036 15.708 41.752 15.648 50.698 15.638V15.65ZM80.626 23.62C77.446 23.62 74.866 26.197 74.866 29.378C74.866 32.558 77.446 35.138 80.626 35.138C83.806 35.138 86.386 32.558 86.386 29.378C86.386 26.198 83.806 23.618 80.626 23.618V23.62ZM55.004 30.35C41.391 30.35 30.354 41.387 30.354 55C30.354 68.613 41.391 79.645 55.004 79.645C68.617 79.645 79.65 68.613 79.65 55C79.65 41.387 68.617 30.35 55.004 30.35ZM55.004 39C63.84 39 71.004 46.163 71.004 55C71.004 63.836 63.84 71 55.004 71C46.167 71 39.004 63.836 39.004 55C39.004 46.163 46.167 39 55.004 39Z" fill="white"/>
</svg>
